<svg width="134" height="74" viewBox="0 0 134 74" fill="none" xmlns="http://www.w3.org/2000/svg">
<path d="M68.0325 67.3823C68.0325 67.7386 67.9612 68.0772 67.8365 68.3979C67.7118 68.7186 67.5158 68.9858 67.2841 69.1996C66.9813 69.4847 66.6427 69.6985 66.233 69.841C65.8232 69.9835 65.3065 70.0548 64.7007 70.0548H63.5604V73.1371H62.4202V64.9058H64.772C65.2887 64.9058 65.7341 64.9414 66.0904 65.0305C66.4468 65.1196 66.7675 65.2443 67.0525 65.4225C67.3732 65.6363 67.6405 65.9035 67.8186 66.2064C67.9434 66.5093 68.0325 66.9012 68.0325 67.3823ZM66.8387 67.4001C66.8387 67.115 66.7853 66.8656 66.6784 66.6518C66.5715 66.438 66.4111 66.2777 66.1973 66.1351C66.0192 66.0282 65.8053 65.9391 65.5559 65.8857C65.3243 65.8322 65.0214 65.8144 64.6473 65.8144H63.507V69.1105H64.4691C64.9323 69.1105 65.3065 69.0749 65.5915 68.9858C65.8766 68.9145 66.1261 68.772 66.3042 68.6116C66.4824 68.4335 66.6071 68.2553 66.6962 68.0593C66.8031 67.8633 66.8387 67.6495 66.8387 67.4001Z" fill="#FF00FE"/>
<path d="M74.2149 73.1377H73.128V72.4785C73.0389 72.5497 72.8964 72.621 72.7361 72.7457C72.5757 72.8526 72.4154 72.9417 72.255 73.013C72.0768 73.1021 71.863 73.1733 71.6314 73.2268C71.3998 73.2802 71.1147 73.3159 70.794 73.3159C70.2061 73.3159 69.7072 73.1377 69.3152 72.7635C68.9055 72.3894 68.7095 71.9261 68.7095 71.356C68.7095 70.8928 68.8164 70.5008 69.0302 70.2157C69.244 69.9307 69.5469 69.6991 69.9388 69.5387C70.3308 69.3783 70.8119 69.2536 71.3642 69.2002C71.9165 69.1467 72.5045 69.0933 73.1459 69.0755V68.9151C73.1459 68.6835 73.1102 68.4875 73.0211 68.3272C72.9321 68.1668 72.8073 68.0421 72.647 67.9708C72.4866 67.8817 72.3085 67.8283 72.0947 67.7927C71.8809 67.757 71.6492 67.757 71.4176 67.757C71.1326 67.757 70.8119 67.7927 70.4555 67.8639C70.0992 67.9352 69.7428 68.0421 69.3687 68.1846H69.2796V67.08C69.4934 67.0265 69.7963 66.9553 70.2061 66.9018C70.6159 66.8306 71.0078 66.7949 71.3998 66.7949C71.863 66.7949 72.255 66.8306 72.5935 66.9018C72.932 66.9731 73.2171 67.0978 73.4666 67.276C73.716 67.4541 73.8942 67.6679 74.0189 67.9352C74.1436 68.2024 74.2149 68.541 74.2149 68.9329V73.1377ZM73.128 71.6055V69.8772C72.7895 69.895 72.3975 69.9307 71.9521 69.9663C71.5067 70.0019 71.1504 70.0554 70.8831 70.1267C70.5624 70.2157 70.313 70.3405 70.117 70.5186C69.921 70.6968 69.8319 70.9462 69.8319 71.2491C69.8319 71.6055 69.9388 71.8727 70.1705 72.0509C70.4021 72.229 70.7406 72.3181 71.2038 72.3181C71.578 72.3181 71.9343 72.2469 72.255 72.1043C72.5579 71.9796 72.8608 71.8014 73.128 71.6055Z" fill="#FF00FE"/>
<path d="M84.406 66.9551L82.7134 73.1375H81.6979L80.0409 68.3804L78.3839 73.1375H77.3862L75.6758 66.9551H76.816L78.0098 71.7478L79.6311 66.9551H80.5219L82.1789 71.7478L83.3014 66.9551H84.406Z" fill="#FF00FE"/>
<path d="M90.6059 71.3558C90.6059 71.9259 90.3564 72.3891 89.8754 72.7455C89.3943 73.1018 88.7173 73.28 87.8799 73.28C87.3988 73.28 86.9534 73.2265 86.5615 73.1196C86.1695 73.0127 85.831 72.888 85.5637 72.7633V71.5874H85.6172C85.9557 71.8368 86.3477 72.0328 86.7574 72.1753C87.185 72.3179 87.577 72.3891 87.969 72.3891C88.45 72.3891 88.8242 72.3179 89.0914 72.1753C89.3587 72.0328 89.5012 71.8012 89.5012 71.4805C89.5012 71.2311 89.43 71.0529 89.2874 70.9282C89.1449 70.8034 88.8598 70.6965 88.4322 70.6075C88.2719 70.5718 88.0759 70.5362 87.8264 70.4827C87.577 70.4471 87.3454 70.3937 87.1494 70.3402C86.5793 70.1977 86.1695 69.9839 85.9379 69.6988C85.7063 69.4137 85.5815 69.0752 85.5815 68.6654C85.5815 68.416 85.635 68.1666 85.7419 67.9528C85.8488 67.7212 86.027 67.5252 86.2408 67.347C86.4546 67.1688 86.7396 67.0441 87.0603 66.9372C87.381 66.8303 87.773 66.7769 88.1828 66.7769C88.5747 66.7769 88.9667 66.8303 89.3587 66.9194C89.7507 67.0085 90.0892 67.1154 90.3564 67.2401V68.3447H90.303C90.0179 68.1487 89.6794 67.9884 89.2874 67.8459C88.8955 67.7033 88.5035 67.6499 88.1115 67.6499C87.7195 67.6499 87.381 67.7212 87.096 67.8637C86.8287 68.0062 86.6862 68.22 86.6862 68.5051C86.6862 68.7545 86.7753 68.9505 86.9356 69.0752C87.096 69.1999 87.3632 69.3068 87.7195 69.3959C87.9155 69.4316 88.1471 69.485 88.3966 69.5206C88.646 69.5563 88.8598 69.6097 89.0202 69.6454C89.519 69.7523 89.911 69.9482 90.1961 70.2155C90.4633 70.5362 90.6059 70.8925 90.6059 71.3558Z" fill="#FF00FE"/>
<path d="M103.559 73.1371H102.062L99.1759 69.8588H97.5546V73.1371H96.4143V64.9058H98.8374C99.3541 64.9058 99.7995 64.9414 100.138 64.9948C100.477 65.0483 100.797 65.173 101.082 65.3334C101.403 65.5294 101.635 65.761 101.813 66.046C101.991 66.3311 102.08 66.6874 102.08 67.1329C102.08 67.7208 101.92 68.2197 101.617 68.6295C101.314 69.0393 100.869 69.3243 100.316 69.5381L103.559 73.1371ZM100.886 67.2041C100.886 66.9725 100.851 66.7587 100.762 66.5805C100.673 66.4024 100.53 66.242 100.334 66.1173C100.174 66.0104 99.9777 65.9391 99.746 65.8857C99.5144 65.8501 99.2472 65.8144 98.9443 65.8144H97.5902V68.9324H98.7483C99.1046 68.9324 99.4253 68.8967 99.6926 68.8433C99.9599 68.7898 100.191 68.6651 100.387 68.5048C100.566 68.3444 100.69 68.1662 100.779 67.9703C100.833 67.7743 100.886 67.5248 100.886 67.2041Z" fill="#FF00FE"/>
<path d="M109.724 70.1445H104.949C104.949 70.5186 105.002 70.8571 105.127 71.1422C105.252 71.4273 105.412 71.6589 105.626 71.8371C105.822 72.0152 106.071 72.1399 106.338 72.229C106.623 72.3181 106.926 72.3537 107.247 72.3537C107.692 72.3537 108.138 72.2647 108.583 72.1043C109.029 71.944 109.349 71.7658 109.545 71.6054H109.599V72.7457C109.225 72.8882 108.851 73.013 108.476 73.1199C108.102 73.2268 107.692 73.2624 107.265 73.2624C106.196 73.2624 105.358 72.9773 104.753 72.425C104.147 71.8727 103.844 71.0888 103.844 70.0554C103.844 69.0398 104.129 68.2381 104.717 67.6501C105.287 67.0622 106.053 66.7593 106.998 66.7593C107.871 66.7593 108.548 67.0087 109.011 67.4898C109.492 67.9708 109.724 68.6657 109.724 69.5565V70.1445ZM108.672 69.3427C108.672 68.7904 108.53 68.3806 108.245 68.0777C107.96 67.7748 107.532 67.6323 106.944 67.6323C106.356 67.6323 105.893 67.7927 105.554 68.1312C105.216 68.4519 105.02 68.8617 104.966 69.3605H108.672V69.3427Z" fill="#FF00FE"/>
<path d="M116.013 71.3558C116.013 71.9259 115.764 72.3891 115.283 72.7455C114.802 73.1018 114.125 73.28 113.287 73.28C112.806 73.28 112.361 73.2265 111.969 73.1196C111.577 73.0127 111.238 72.888 110.971 72.7633V71.5874H111.024C111.363 71.8368 111.755 72.0328 112.165 72.1753C112.592 72.3179 112.984 72.3891 113.376 72.3891C113.857 72.3891 114.231 72.3179 114.499 72.1753C114.766 72.0328 114.908 71.8012 114.908 71.4805C114.908 71.2311 114.837 71.0529 114.695 70.9282C114.552 70.8034 114.267 70.6965 113.839 70.6075C113.679 70.5718 113.483 70.5362 113.234 70.4827C112.984 70.4471 112.753 70.3937 112.557 70.3402C111.987 70.1977 111.577 69.9839 111.345 69.6988C111.113 69.4137 110.989 69.0752 110.989 68.6654C110.989 68.416 111.042 68.1666 111.149 67.9528C111.256 67.7212 111.434 67.5252 111.648 67.347C111.862 67.1688 112.147 67.0441 112.468 66.9372C112.788 66.8303 113.18 66.7769 113.59 66.7769C113.982 66.7769 114.374 66.8303 114.766 66.9194C115.158 67.0085 115.496 67.1154 115.764 67.2401V68.3447H115.71C115.425 68.1487 115.087 67.9884 114.695 67.8459C114.303 67.7033 113.911 67.6499 113.519 67.6499C113.127 67.6499 112.788 67.7212 112.503 67.8637C112.236 68.0062 112.093 68.22 112.093 68.5051C112.093 68.7545 112.182 68.9505 112.343 69.0752C112.503 69.1999 112.77 69.3068 113.127 69.3959C113.323 69.4316 113.554 69.485 113.804 69.5206C114.053 69.5563 114.267 69.6097 114.427 69.6454C114.926 69.7523 115.318 69.9482 115.603 70.2155C115.871 70.5362 116.013 70.8925 116.013 71.3558Z" fill="#FF00FE"/>
<path d="M123.086 70.0373C123.086 71.0529 122.819 71.8368 122.266 72.4248C121.732 73.0127 121.001 73.2978 120.093 73.2978C119.184 73.2978 118.453 73.0127 117.901 72.4248C117.367 71.8368 117.099 71.0529 117.099 70.0373C117.099 69.0218 117.367 68.2378 117.901 67.6499C118.436 67.0619 119.166 66.7769 120.093 66.7769C121.001 66.7769 121.732 67.0619 122.266 67.6499C122.801 68.2378 123.086 69.0396 123.086 70.0373ZM121.963 70.0373C121.963 69.2356 121.803 68.6476 121.464 68.2556C121.144 67.8637 120.681 67.6677 120.093 67.6677C119.505 67.6677 119.041 67.8637 118.721 68.2556C118.4 68.6476 118.222 69.2356 118.222 70.0373C118.222 70.8034 118.382 71.3914 118.721 71.8012C119.041 72.1932 119.505 72.407 120.093 72.407C120.681 72.407 121.126 72.211 121.464 71.819C121.803 71.427 121.963 70.8213 121.963 70.0373Z" fill="#FF00FE"/>
<path d="M128.823 68.0773H128.77C128.609 68.0416 128.449 68.006 128.289 67.9882C128.128 67.9704 127.95 67.9704 127.754 67.9704C127.416 67.9704 127.095 68.0417 126.774 68.1842C126.454 68.3267 126.151 68.5049 125.866 68.7365V73.1372H124.779V66.9548H125.866V67.8635C126.293 67.525 126.685 67.2933 127.006 67.1508C127.327 67.0083 127.665 66.937 128.021 66.937C128.217 66.937 128.342 66.937 128.431 66.9548C128.52 66.9726 128.645 66.9905 128.805 67.0083V68.0773H128.823Z" fill="#FF00FE"/>
<path d="M133.206 73.0664C132.992 73.1199 132.779 73.1555 132.529 73.1911C132.28 73.2268 132.066 73.2446 131.888 73.2446C131.229 73.2446 130.73 73.0664 130.373 72.7279C130.035 72.3894 129.857 71.8371 129.857 71.0887V67.8105H129.126V66.9374H129.857V65.1558H130.944V66.9374H133.188V67.8105H130.944V70.6433C130.944 70.964 130.944 71.2135 130.961 71.4094C130.979 71.6054 131.033 71.7658 131.122 71.9261C131.211 72.0687 131.318 72.1756 131.478 72.2468C131.621 72.3181 131.852 72.3537 132.155 72.3537C132.333 72.3537 132.511 72.3359 132.707 72.2825C132.903 72.229 133.046 72.1934 133.117 72.1578H133.171V73.0664H133.206Z" fill="#FF00FE"/>
<path d="M12.5508 50.9019C12.5508 51.5433 12.4261 52.1847 12.1945 52.8083C11.9629 53.4319 11.6243 53.9486 11.1789 54.3762C10.5732 54.9463 9.89612 55.3739 9.14782 55.6768C8.39951 55.9619 7.47304 56.1222 6.3684 56.1222H3.9275V60.8437H0.0078125V46.3408H6.45748C7.41959 46.3408 8.23916 46.4121 8.89838 46.5724C9.5576 46.7328 10.1456 46.9644 10.6622 47.2851C11.268 47.6771 11.7491 48.1581 12.0698 48.7639C12.3905 49.3519 12.5508 50.0645 12.5508 50.9019ZM8.48859 50.991C8.48859 50.5812 8.38169 50.2249 8.15008 49.9398C7.91846 49.6369 7.65121 49.4409 7.34832 49.3162C6.93854 49.1559 6.54657 49.0668 6.1546 49.0668C5.76263 49.049 5.24594 49.049 4.60454 49.049H3.9275V53.3606H5.04996C5.70918 53.3606 6.2615 53.325 6.70692 53.2359C7.13452 53.1646 7.50867 53.0043 7.79374 52.7727C8.04318 52.5589 8.22134 52.3094 8.34606 52.0244C8.43515 51.7571 8.48859 51.4008 8.48859 50.991Z" fill="white"/>
<path d="M29.3704 60.8261H25.326L24.2748 57.9042H18.6447L17.5935 60.8261H13.6382L19.2505 46.3232H23.7581L29.3704 60.8261ZM23.3127 55.2316L21.4419 50.047L19.5712 55.2316H23.3127Z" fill="white"/>
<path d="M52.5312 46.3232L48.4334 60.8261H44.0861L41.3601 51.3832L38.7054 60.8261H34.3759L30.2781 46.3232H34.3759L36.7099 56.3006L39.5072 46.3232H43.409L46.0638 56.3006L48.5047 46.3232H52.5312Z" fill="white"/>
<path d="M67.3014 56.2647C67.3014 57.69 66.66 58.8481 65.395 59.739C64.13 60.6298 62.4018 61.0752 60.2282 61.0752C58.9632 61.0752 57.8763 60.9683 56.932 60.7545C55.9878 60.5407 55.1147 60.2735 54.2952 59.9528V56.4785H54.7228C55.5245 57.1021 56.4332 57.5653 57.4487 57.9038C58.4465 58.2423 59.4086 58.4027 60.335 58.4027C60.5667 58.4027 60.8874 58.3849 61.2793 58.3492C61.6713 58.3136 61.992 58.2423 62.2236 58.1533C62.5265 58.0285 62.7759 57.886 62.9719 57.7078C63.1679 57.5297 63.257 57.2802 63.257 56.9239C63.257 56.6032 63.1145 56.336 62.8294 56.1043C62.5443 55.8727 62.1345 55.6945 61.5822 55.5698C61.0121 55.4451 60.4063 55.3204 59.7649 55.2135C59.1235 55.1066 58.5356 54.9641 57.9654 54.7859C56.6826 54.3939 55.774 53.8594 55.2038 53.1824C54.6337 52.5053 54.3664 51.6679 54.3664 50.6524C54.3664 49.2983 55.0078 48.1937 56.2728 47.3385C57.5378 46.4833 59.177 46.0557 61.1724 46.0557C62.1702 46.0557 63.1679 46.1447 64.13 46.3407C65.1099 46.5189 65.9473 46.7505 66.66 47.0356V50.3673H66.2502C65.6444 49.9041 64.8961 49.5121 64.0053 49.1914C63.1145 48.8707 62.2058 48.7104 61.2793 48.7104C60.9586 48.7104 60.6201 48.7282 60.2994 48.7816C59.9787 48.8173 59.658 48.9063 59.3729 49.0132C59.1057 49.1023 58.8741 49.2627 58.6959 49.4587C58.4999 49.6546 58.4108 49.8863 58.4108 50.1357C58.4108 50.5099 58.5712 50.8127 58.8741 51.0087C59.177 51.2047 59.7649 51.4007 60.6023 51.5611C61.1546 51.668 61.6891 51.7749 62.2058 51.8818C62.7225 51.9887 63.2748 52.1312 63.8628 52.3094C65.0209 52.6657 65.8939 53.1646 66.4462 53.7882C67.0163 54.4474 67.3014 55.2669 67.3014 56.2647Z" fill="white"/>
<path d="M78.2055 60.8259H69.2971V58.2602H71.7915V48.9064H69.2971V46.3408H78.2055V48.9064H75.7112V58.2602H78.2055V60.8259Z" fill="white"/>
<path d="M93.2967 49.1205H88.5574V60.8083H84.6377V49.1205H79.8984V46.3232H93.3145V49.1205H93.2967Z" fill="white"/>
<path d="M103.862 60.8259H94.9534V58.2602H97.4477V48.9064H94.9534V46.3408H103.862V48.9064H101.367V58.2602H103.862V60.8259Z" fill="white"/>
<path d="M120.841 46.3232L115.3 60.8261H110.917L105.376 46.3232H109.492L113.162 56.4966L116.833 46.3232H120.841Z" fill="white"/>
<path d="M134.008 60.8261H123.015V46.3232H134.008V49.1205H126.917V51.6148H133.491V54.4299H126.917V58.011H134.008V60.8261Z" fill="white"/>
<path d="M53.6366 9.95912C54.474 7.83892 55.0085 5.55837 54.7769 3.24219C55.0085 4.36464 55.0797 5.594 54.955 6.71646C54.6878 9.63841 53.3871 12.3287 52.3716 15.0369C51.3917 17.7094 50.4296 20.4888 49.8594 23.2326C49.5387 24.8718 49.2537 26.5287 49.5031 28.1679C49.7347 29.8426 50.7325 30.7513 52.4251 30.6444C55.7746 30.6266 59.0885 29.5219 61.8501 27.5977C63.2042 26.6356 64.4514 25.4419 65.2709 23.9987C65.6273 23.393 65.7876 22.6803 66.0193 22.0211C66.8566 19.8296 69.351 18.8675 71.5603 19.0457C69.4935 19.1169 67.2308 20.1325 66.5894 22.2171C66.4112 22.9297 66.2687 23.678 65.9302 24.3194C65.1462 25.9586 63.8634 27.2948 62.4559 28.3995C59.6052 30.5731 56.0597 31.8559 52.4607 31.8916C50.1267 32.0341 48.5766 30.6444 48.2737 28.3817C47.7392 24.07 49.9129 18.6715 51.5342 14.7162C52.1756 13.1127 53.0308 11.5626 53.6366 9.95912Z" fill="white"/>
<path d="M50.75 13.3983C49.3603 10.2804 49.5384 6.39632 51.3736 3.49219C50.3045 6.44977 50.0551 9.67462 50.6431 12.7747C50.6787 12.9707 50.7143 13.1845 50.75 13.3983Z" fill="white"/>
<path d="M73.9472 13.5047C73.5196 11.919 72.2724 10.6184 70.8114 9.83448C70.4017 8.44477 69.6534 7.16196 68.6022 6.18204C65.894 3.75896 61.7071 2.51179 58.0725 2.47615C57.1103 1.6744 55.9879 1.10426 54.7585 0.837007C53.547 0.569756 52.2285 0.747924 51.1239 1.28243C48.3267 0.15997 45.2444 0.712283 42.4471 2.15544C41.7701 2.47614 41.0753 2.83248 40.4873 3.3848C40.2022 3.66987 39.9706 3.9015 39.6855 4.07966C38.7591 4.68543 37.6366 4.98831 36.6923 5.62971C35.3739 6.48492 34.3227 7.76773 33.7882 9.26434C33.3784 10.6541 32.6479 11.9369 31.7036 13.0237C29.4409 15.6962 24.7194 16.2842 22.1182 17.2284C21.4233 17.4779 20.4969 17.7273 19.5348 17.9768C17.272 18.5825 14.7064 19.2596 13.2098 20.4889C12.7466 20.8809 12.4793 21.5757 12.4259 22.5557C12.2655 25.6558 14.2788 31.179 18.341 35.3303C20.871 37.9137 24.4344 39.3212 28.1225 39.1609C31.7393 39.0184 36.6567 38.8402 39.5786 38.8402C44.1041 38.8402 45.7789 43.3835 45.8501 43.5795L45.7433 43.2409C45.7254 43.1875 44.8346 37.8246 39.5965 37.8246C36.6567 37.8246 31.7214 38.0028 28.0868 38.1453C24.6838 38.2879 21.4055 37.0051 19.0715 34.6176C15.2231 30.6623 13.2989 25.4776 13.4414 22.6091C13.4771 21.9499 13.6374 21.4688 13.869 21.2729C15.2053 20.1682 17.6462 19.5268 19.8198 18.9567C20.7998 18.6894 21.744 18.44 22.4923 18.1727C24.0959 17.5848 29.8863 16.783 32.4163 13.6116C33.1468 12.703 33.7704 11.7052 34.198 10.6184C34.3405 10.2621 34.4474 9.8523 34.5543 9.53159C34.9997 8.19534 35.9084 7.01943 37.0665 6.19985C37.9751 5.54063 39.0798 5.23775 39.9884 4.56071C40.3091 4.34691 40.5942 4.04402 40.8436 3.75895C41.3247 3.26008 41.9661 2.90375 42.6253 2.54741C43.9438 1.87038 45.2978 1.24679 46.7588 1.01518C48.9503 0.676656 51.2843 1.12207 53.1194 2.42269C52.4958 1.94164 51.8366 1.54968 51.1595 1.28243C51.409 1.22898 51.6762 1.17552 51.89 1.15771C53.9568 0.908272 56.0413 1.88819 57.4489 3.34917L57.5914 3.50952L57.8408 3.52734C61.0122 3.75895 64.2192 4.68543 66.9452 6.34239L67.4084 6.62746L67.8361 6.96597C69.7603 8.53385 70.7758 10.9035 71.0074 13.38C71.1856 12.2754 71.1143 11.1351 70.8293 10.0483C71.7379 10.761 72.4862 11.634 72.896 12.6317C73.1633 13.2375 73.2345 13.8433 73.3593 14.4847C73.3949 14.5916 73.4305 14.6985 73.4483 14.7875C73.0207 15.5715 72.9316 16.5336 72.9316 17.4066C72.9495 18.5291 72.7535 19.5803 71.8448 20.2751C70.4729 21.3441 68.8338 21.6826 67.2125 22.3597C68.2458 22.4844 69.297 22.4666 70.3482 22.2528C72.023 21.9143 73.7869 20.8452 74.0007 18.9745C74.1432 17.7273 73.7156 16.6049 73.6621 15.4289C73.8403 15.9278 74.0363 16.4267 74.2857 16.8899C75.1587 18.636 78.7577 20.8096 78.7577 20.8096C76.5485 18.7963 74.6955 16.3732 73.9472 13.5047Z" fill="white"/>
<path d="M41.7169 14.2529C41.0933 13.469 39.6323 11.9367 38.3852 12.8632C38.3852 12.8632 39.9887 13.5046 39.6502 15.5357C39.3295 15.607 38.9909 15.5713 38.6702 15.3575C37.4943 14.5558 36.5144 14.627 36.5144 14.627C37.0845 14.0925 36.55 11.2953 38.4386 10.8677C40.3628 10.4223 41.8951 14.1282 41.7169 14.2529Z" fill="white"/>
<path d="M35.2489 13.2021C35.1954 15.2154 34.2689 18.4937 32.3091 19.4202C33.1465 18.6006 33.5919 17.5316 34.0373 16.4626C34.4827 15.3936 34.8391 14.289 35.2489 13.2021Z" fill="white"/>
<path d="M28.657 28.9521C30.3674 30.9476 31.0623 34.3863 28.8708 36.3105C28.5857 36.5777 28.265 36.7737 27.9265 36.9519C30.5099 34.6713 29.9576 31.7672 28.657 28.9521Z" fill="white"/>
<path d="M45.3158 17.0854C45.4227 20.5241 42.6611 23.5886 39.365 24.2834C40.0955 23.9093 40.8082 23.4995 41.4674 23.0184C43.445 21.6287 44.8347 19.4729 45.3158 17.0854Z" fill="white"/>
<path d="M37.3877 9.69176C38.3854 8.74747 40.2206 9.08598 40.862 10.2975C40.7016 10.2441 40.5769 10.155 40.4344 10.1015C39.4723 9.62049 38.4389 9.51359 37.3877 9.69176Z" fill="white"/>
<path d="M13.5668 27.8647L13.2817 27.063C14.0835 26.7779 14.6358 26.3681 14.8496 25.9049C15.0456 25.4773 14.9209 25.1031 14.9209 25.1031L14.7783 24.7112L15.1525 24.5508C15.1881 24.533 16.0077 24.1588 16.5957 22.7157C17.4152 20.7202 16.1681 19.8115 16.1146 19.7759L16.5957 19.0811C17.2371 19.5265 18.2526 20.9162 17.3796 23.0364C16.8807 24.2836 16.1859 24.8893 15.7939 25.1566C15.8295 25.4238 15.8295 25.8158 15.6335 26.2434C15.3128 26.9561 14.618 27.4906 13.5668 27.8647Z" fill="white"/>
<path d="M15.1344 24.8899C14.885 24.8899 14.1189 23.9278 14.0654 22.4312C13.0499 22.8053 12.9073 23.3398 13.0142 24.0881C13.0321 24.0881 13.5309 25.5669 15.1344 24.8899Z" fill="white"/>
<path d="M46.7767 33.4414C47.917 35.2765 46.6698 37.1117 44.7634 37.664C44.1932 37.8422 43.6231 37.9312 43.0352 37.9312C43.5875 37.7174 44.122 37.5214 44.6208 37.2898C46.2956 36.5415 47.2399 35.33 46.7767 33.4414Z" fill="white"/>
<path d="M16.3098 32.7109C17.6283 35.4191 19.9266 37.7175 22.7951 38.7508C25.6636 39.802 28.8172 39.5348 31.7748 38.8399C30.3316 39.3922 28.8172 39.7486 27.2493 39.8376C22.3497 40.2296 17.9133 37.3968 16.3098 32.7109Z" fill="white"/>
<path d="M89.5374 8.90788C88.8781 9.08604 88.2545 9.37112 87.6844 9.7809C87.1143 10.1729 86.5976 10.6896 86.2413 11.331L86.1165 11.5626C86.0809 11.616 86.0631 11.6873 86.0453 11.7407C86.0096 11.6873 85.974 11.6338 85.9384 11.5804L85.7602 11.3666C85.2791 10.8321 84.6556 10.4223 84.0142 10.1551C83.3728 9.8878 82.6957 9.74527 82.0187 9.70963C81.3416 9.674 80.6646 9.72745 80.0232 9.8878C80.6824 9.92343 81.3238 9.9947 81.9474 10.1372C82.571 10.2798 83.1589 10.4936 83.7113 10.7965C84.2458 11.0815 84.7446 11.4557 85.101 11.9189C85.4751 12.3643 85.7067 12.8988 85.778 13.4512L86.6688 13.3443C86.6154 12.7919 86.7401 12.2218 86.9896 11.7051C87.2568 11.1884 87.6488 10.7074 88.112 10.3154C88.5753 9.90562 89.1097 9.5671 89.6977 9.29985C90.2678 9.01478 90.8914 8.81879 91.5328 8.64062C90.8558 8.64063 90.1966 8.72971 89.5374 8.90788Z" fill="white"/>
<path d="M118.347 14.3596C117.919 14.4665 117.51 14.6268 117.118 14.8763C116.744 15.1257 116.387 15.4642 116.156 15.8918L116.138 15.9275L116.102 15.8918C115.764 15.5355 115.372 15.2861 114.944 15.1257C114.516 14.9654 114.071 14.8941 113.643 14.8763C113.198 14.8763 112.77 14.9297 112.378 15.0722C112.806 15.1257 113.198 15.197 113.59 15.3217C113.964 15.4286 114.338 15.5711 114.659 15.7671C114.98 15.9631 115.265 16.1947 115.479 16.462C115.692 16.7292 115.817 17.0321 115.853 17.3528L116.744 17.2459C116.708 16.9252 116.779 16.6045 116.922 16.3016C117.064 15.9987 117.296 15.7137 117.563 15.4464C117.83 15.197 118.151 14.9654 118.507 14.7694C118.864 14.5734 119.238 14.413 119.63 14.2705C119.22 14.2349 118.775 14.2705 118.347 14.3596Z" fill="white"/>
<path d="M103.078 24.0344C102.65 24.1413 102.24 24.3016 101.848 24.5511C101.474 24.8005 101.118 25.139 100.886 25.5666L100.868 25.6023L100.833 25.5666C100.494 25.2103 100.102 24.9608 99.6747 24.8005C99.2471 24.6401 98.8017 24.5689 98.3741 24.5511C97.9287 24.5511 97.5011 24.6045 97.1091 24.7471C97.5367 24.8005 97.9287 24.8718 98.3207 24.9965C98.6948 25.1034 99.069 25.2459 99.3897 25.4419C99.7104 25.6379 99.9954 25.8695 100.209 26.1368C100.423 26.404 100.548 26.7069 100.583 27.0276L101.474 26.9207C101.439 26.6 101.51 26.2793 101.652 25.9764C101.795 25.6735 102.027 25.3885 102.294 25.1212C102.561 24.8718 102.882 24.6401 103.238 24.4442C103.594 24.2482 103.969 24.0878 104.361 23.9453C103.933 23.9097 103.505 23.9453 103.078 24.0344Z" fill="white"/>
<path d="M121.482 36.2746C121.625 36.8626 121.767 37.4505 121.928 38.0385C122.035 38.4839 122.159 38.9115 122.266 39.3569C122.266 39.3747 122.284 39.3926 122.284 39.4104C122.32 39.5351 122.355 39.6598 122.391 39.7845C122.391 39.5529 122.409 39.3035 122.409 39.054C122.409 35.8648 121.803 32.8182 120.698 30.0209C120.574 29.9497 120.449 29.914 120.324 29.8784L120.182 29.8071C120.431 31.3216 120.734 32.8894 121.09 34.4929C121.215 35.0809 121.34 35.6688 121.482 36.2746Z" fill="url(#paint0_linear_1_441)"/>
<path d="M74.2322 40.6572H122.623L111.754 41.1561L119.968 41.3877L104.77 42.1895L116.886 42.4745L110.097 42.8843L121.34 43.3297L102.739 44.0602L108.387 44.5947H83.9067L93.1358 43.6861L79.31 43.5079L91.8708 42.6349H71.9873L84.8332 41.5124L74.2322 40.6572Z" fill="#FF00FE"/>
<path d="M121.465 40.1588C121.305 39.4284 121.144 38.7157 121.002 37.9852C120.877 37.3794 120.752 36.7915 120.645 36.1857C120.538 35.6156 120.432 35.0632 120.325 34.4931C120.04 32.943 119.79 31.4108 119.558 29.8607L119.541 29.8786C119.006 30.5556 118.65 31.2148 118.632 31.785C118.525 31.6424 118.418 31.4821 118.311 31.3039C117.795 32.0522 117.51 32.943 117.492 33.9586C117.331 33.7092 117.135 33.4241 116.939 33.1212C116.833 33.531 116.797 33.9942 116.815 34.4753C116.833 34.9029 116.886 35.3483 116.975 35.8115C116.975 35.8294 116.975 35.865 116.993 35.8828C116.833 35.8828 116.69 35.8472 116.565 35.7759C116.441 35.6868 116.351 35.5443 116.28 35.3483C116.262 35.473 116.227 35.6156 116.209 35.7403C116.191 35.865 116.173 36.061 116.155 36.2213C116.155 36.2213 114.873 34.7603 114.873 34.4396C114.801 32.8896 115.568 31.2861 117.652 29.7004H116.619C116.209 29.8251 115.835 30.0211 115.496 30.324C115.389 30.1458 115.389 29.932 115.461 29.7004H114.98C114.409 30.1102 113.911 30.609 113.447 31.197C113.394 30.8585 113.447 30.52 113.572 30.128C112.806 30.3952 112.111 30.8228 111.594 31.6602C111.719 30.9832 112.004 30.2883 112.467 29.6826L97.145 29.6113L112.788 29.2728C112.948 29.0946 113.144 28.9164 113.34 28.7383L112.396 28.7205L113.394 28.6848C114.588 27.7405 116.316 27.2417 118.525 27.7762C118.08 27.3486 117.456 27.117 116.708 26.9922C116.672 26.8319 116.797 26.6715 117.367 26.5825C116.779 26.3687 116.209 26.2974 115.657 26.3865C116.583 25.6916 117.866 25.8341 119.095 26.6715C118.685 25.9767 118.24 25.2818 117.759 24.6404L107.853 24.3732L117.367 24.1237C115.389 21.5403 112.895 19.3488 110.044 17.7097L96.361 17.3355L108.726 16.997C105.43 15.3757 101.742 14.4492 97.822 14.4492C91.5861 14.4492 85.9026 16.7654 81.5731 20.5782L106.303 21.3621L80.2725 21.7897C80.219 21.8432 80.1478 21.9145 80.0943 21.9679L93.9736 22.6271L79.0431 23.126C77.2793 25.2106 75.8539 27.5802 74.8562 30.1636L78.954 30.9832L74.5177 31.1257C73.6803 33.6201 73.217 36.2748 73.217 39.0542C73.217 39.4462 73.2349 39.8381 73.2527 40.2301H121.554L121.465 40.1588ZM98.3565 24.5513C98.8019 24.5513 99.2474 24.6404 99.6571 24.8008C100.085 24.9611 100.495 25.2106 100.815 25.5669L100.851 25.6025L100.869 25.5669C101.118 25.1393 101.457 24.8186 101.831 24.5513C102.205 24.3019 102.633 24.1237 103.06 24.0347C103.488 23.9278 103.915 23.9099 104.343 23.9456C103.951 24.0881 103.559 24.2485 103.22 24.4444C102.864 24.6404 102.543 24.8542 102.276 25.1215C102.009 25.3709 101.777 25.656 101.635 25.9767C101.492 26.2796 101.421 26.6003 101.457 26.921L100.566 27.01C100.53 26.6893 100.388 26.4043 100.192 26.1192C99.9778 25.852 99.6928 25.6203 99.3721 25.4244C99.0514 25.2284 98.695 25.0858 98.3031 24.9789C97.9289 24.872 97.5191 24.8008 97.0915 24.7473C97.4835 24.6048 97.9111 24.5513 98.3565 24.5513Z" fill="url(#paint1_linear_1_441)"/>
<defs>
<linearGradient id="paint0_linear_1_441" x1="121.285" y1="7.11726" x2="121.285" y2="38.3219" gradientUnits="userSpaceOnUse">
<stop stop-color="#FD5C00"/>
<stop offset="1" stop-color="#FEBF44"/>
</linearGradient>
<linearGradient id="paint1_linear_1_441" x1="97.3467" y1="7.11742" x2="97.3467" y2="38.3221" gradientUnits="userSpaceOnUse">
<stop stop-color="#FD5C00"/>
<stop offset="1" stop-color="#FEBF44"/>
</linearGradient>
</defs>
</svg>
